<svg xmlns="http://www.w3.org/2000/svg" width="128.697" height="39.225" viewBox="0 0 128.697 39.225">
  <defs>
    <style>
      .cls-1 {
        fill: #fb7b04;
      }

      .cls-2 {
        fill: #12b8f3;
      }
    </style>
  </defs>
  <g id="Group_431" data-name="Group 431" transform="translate(304 -1192.678)">
    <path id="Path_1710" data-name="Path 1710" class="cls-1" d="M674.5,183.514q8.488,0,16.976,0c.957,0,1.065.156.649,1.016-1.139,2.35-2.335,4.674-3.422,7.048-.244.532-.524.556-.965.556q-9.968-.006-19.936,0c-1.283,0-2.568.031-3.848-.024-.686-.029-.933.2-.922.878.028,1.808.01,3.616.012,5.424,0,3.978-.007,7.955.027,11.933a.976.976,0,0,1-.675,1.05,9.444,9.444,0,0,1-7.195.057c-.65-.256-.713-.757-.711-1.352q.018-7.84.006-15.681c0-.437.234-1.072-.23-1.252-.343-.133-.815.284-1.2.533a10.639,10.639,0,0,0-5.114,7.444,1,1,0,0,1-1.171,1c-2.137-.058-4.276-.017-6.414-.007-.74,0-1.117-.137-1.016-1.082a19.332,19.332,0,0,1,10.892-15.591,20.459,20.459,0,0,1,8.862-1.943q7.7,0,15.4,0Z" transform="translate(-943.148 1009.203)"/>
    <path id="Path_1712" data-name="Path 1712" class="cls-2" d="M824,216.965c-2.039,0-4.077-.02-6.115.013-.618.01-.862-.139-.858-.808.026-4.007.019-8.014,0-12.021,0-.579.164-.807.782-.8,4.043.018,8.087-.039,12.13.024a3.45,3.45,0,0,1,3.357,2,3.654,3.654,0,0,1-.367,4.074.735.735,0,0,0,.06,1.19,3.633,3.633,0,0,1,.618,4.213,3.52,3.52,0,0,1-3.493,2.112c-2.038.035-4.076.008-6.114.008Zm1.412-5.154c-1.511,0-3.024.031-4.535-.012-.829-.023-.662.523-.672.987-.01.488-.1.982.7.975,2.958-.03,5.916-.01,8.874-.008.67,0,1.048-.3,1.048-1,0-.725-.407-.955-1.075-.947C828.306,211.821,826.86,211.809,825.414,211.811Zm-.107-5.165c-1.479,0-2.959.027-4.438-.012-.739-.019-.687.441-.654.9.031.438-.23,1.055.614,1.052,2.926-.009,5.852,0,8.779,0,.727,0,.985-.457.978-1.089-.007-.657-.391-.882-1.037-.867C828.135,206.667,826.721,206.643,825.307,206.646Z" transform="translate(-1027.386 999.806)"/>
    <path id="Path_1713" data-name="Path 1713" class="cls-1" d="M790.673,245.637c-2.5,0-5-.017-7.5.011-.659.007-.917-.151-.911-.879q.051-5.767-.007-11.536c-.008-.79.185-1.08,1.035-1.073q7.451.054,14.9,0c.84-.006,1.06.289,1.05,1.082-.027,2.083,0,2.088-2.1,2.092-3.586.006-7.172.028-10.758-.008-.8-.008-.99.246-.984,1.014s.208,1.026,1,1.017c3.717-.038,7.435,0,11.152-.04.8-.009,1.016.226.967,1.019-.132,2.142-.1,2.144-2.24,2.144-3.29,0-6.582.058-9.869-.032-1.165-.032-.937.624-1,1.292-.079.845.446.772,1,.771q5.774-.016,11.548-.008c1.215,0,1.265.078,1.249,1.3-.023,1.821-.023,1.827-1.825,1.831-2.237.006-4.475,0-6.712,0Z" transform="translate(-1010.901 986.144)"/>
    <path id="Path_1714" data-name="Path 1714" class="cls-2" d="M789.253,203.356h5.724a3.885,3.885,0,0,1,4.166,3.508,5.059,5.059,0,0,1-1.21,4.584,3.534,3.534,0,0,1-2.741,1.1c-.208,0-.51-.088-.618.164s.159.4.3.565c.943,1.043,1.913,2.059,2.792,3.162.42.527.118.5-.268.5-1.02.006-2.04-.01-3.059.014a1.333,1.333,0,0,1-1.07-.591c-.933-1.053-1.958-2.035-2.8-3.158-.6-.8-1.33-.7-2.107-.707-1.282-.009-1.282-.01-1.272-1.3.015-1.8.015-1.8,1.856-1.8,1.908,0,3.816.011,5.724,0,1.05,0,1.375-.4,1.337-1.582-.033-1.013-.294-1.237-1.339-1.229-2.763.019-5.526.049-8.288.019-.777-.008-1.016.234-1,1.01.041,2.761-.009,5.522.034,8.283.012.778-.141,1.1-1.009,1.079-2.165-.043-2.164,0-2.164-2.2,0-3.484.02-6.969-.017-10.453-.008-.777.221-1.028,1.005-1.009,2.006.049,4.013.016,6.02.016Z" transform="translate(-1010.889 999.814)"/>
    <path id="Path_1715" data-name="Path 1715" class="cls-2" d="M860.078,216.975c-1.25,0-2.5-.023-3.75,0a4.423,4.423,0,0,1-4.694-4.759,31.149,31.149,0,0,0,0-4.14,4.441,4.441,0,0,1,4.65-4.719c2.566.005,5.132-.019,7.7.024a4.29,4.29,0,0,1,4.481,4.46q.049,2.415-.01,4.831a4.232,4.232,0,0,1-4.326,4.294C862.776,217,861.427,216.976,860.078,216.975Zm-.112-3.219v-.009c1.346,0,2.692.01,4.038,0,.81-.008,1.281-.339,1.257-1.253-.039-1.54-.028-3.084,0-4.625.013-.817-.31-1.211-1.155-1.206q-4.038.022-8.076,0a1.069,1.069,0,0,0-1.2,1.212c-.013,1.508-.022,3.018,0,4.527.017,1,.386,1.343,1.4,1.355C857.47,213.767,858.718,213.755,859.966,213.755Z" transform="translate(-1043.784 999.796)"/>
    <path id="Path_1716" data-name="Path 1716" class="cls-1" d="M764.727,238.83c0,1.938-.036,3.878.018,5.814.021.763-.28.806-.947.944-2.362.489-3.573-1.212-5.015-2.455-2.227-1.919-4.4-3.9-6.606-5.845-.2-.179-.371-.576-.708-.392-.29.158-.165.538-.166.819-.009,2.3-.023,4.6.011,6.9.01.685-.112.988-.913.956-2.183-.089-2.209-.048-2.226-2.231-.025-3.418,0-6.836-.027-10.253-.006-.739.237-.9.989-1.039,2.491-.457,3.715,1.388,5.231,2.68,2.185,1.86,4.309,3.792,6.466,5.685.162.144.333.4.58.29.3-.131.18-.465.182-.7.013-2.2,0-4.4,0-6.6,0-1.295.018-1.315,1.316-1.3,1.822.022,1.823.022,1.823,1.8q0,2.465,0,4.93Z" transform="translate(-994.733 986.228)"/>
    <path id="Path_1717" data-name="Path 1717" class="cls-1" d="M724.468,245.63c-1.184,0-2.369.018-3.553,0a4.005,4.005,0,0,1-4.05-4.061c-.016-1.742-.016-3.483-.025-5.225a4.137,4.137,0,0,1,3.913-4.145q3.8-.095,7.6,0a4.151,4.151,0,0,1,3.84,4.036c.039,1.773.045,3.551-.01,5.324a4.065,4.065,0,0,1-4.259,4.077q-1.727,0-3.453,0Zm.005-3.138v-.009c1.05,0,2.1-.036,3.151.011.914.04,1.384-.387,1.406-1.244.041-1.573.048-3.149,0-4.722a1.14,1.14,0,0,0-1.266-1.2c-2.167,0-4.334-.006-6.5.009a1.166,1.166,0,0,0-1.278,1.294c-.014,1.508-.032,3.018,0,4.526.022.98.418,1.319,1.428,1.33S723.455,242.492,724.473,242.492Z" transform="translate(-979.891 986.148)"/>
    <path id="Path_1718" data-name="Path 1718" class="cls-2" d="M756.461,216.934c-1.447,0-2.894.015-4.341,0a3.913,3.913,0,0,1-4.009-3.976c-.042-2.956-.007-5.913-.034-8.87,0-.536.126-.743.706-.771,2.485-.117,2.483-.137,2.484,2.361q0,3.351,0,6.7c0,1.161.168,1.342,1.287,1.346q3.847.013,7.694,0c1.156,0,1.293-.151,1.3-1.333.005-2.661.026-5.323-.011-7.983-.012-.845.241-1.148,1.126-1.112,2.041.083,2.043.04,2.043,2.117,0,2.53.006,5.059,0,7.589a3.812,3.812,0,0,1-3.8,3.925C759.421,216.969,757.94,216.934,756.461,216.934Z" transform="translate(-994.7 999.836)"/>
    <path id="Path_1719" data-name="Path 1719" class="cls-2" d="M724.654,203.35c2.236,0,4.473.025,6.708-.016.618-.012.844.2.809.773-.016.262-.044.524-.044.786,0,1.749,0,1.75-1.8,1.748-1.086,0-2.173.036-3.255-.027-.723-.042-.968.158-.957.917.044,2.792-.008,5.586.032,8.378.011.772-.125,1.093-1.008,1.071-2.3-.057-2.3-.01-2.3-2.27,0-2.333-.04-4.667.018-7,.023-.891-.274-1.131-1.128-1.09-1.345.066-2.7-.016-4.043.022-.644.018-.861-.2-.878-.843-.063-2.425-.082-2.428,2.318-2.435,1.842-.005,3.684,0,5.525,0Z" transform="translate(-979.869 999.808)"/>
    <g id="Group_428" data-name="Group 428">
      <path id="Path_1711" data-name="Path 1711" class="cls-2" d="M670.474,203.379c1.48,0,2.963.041,4.441-.018a1.251,1.251,0,0,1,1.353.854c2.447,5.638,2.579,11.285-.181,16.83a19.518,19.518,0,0,1-29.513,6.886,20.781,20.781,0,0,1-5.142-5.864,19.533,19.533,0,0,1-2.441-8.166c-.04-.386.1-.484.4-.485q3.9-.01,7.8-.009c.582,0,.527.453.606.832a10.956,10.956,0,0,0,6.472,8.306,10.949,10.949,0,0,0,14.091-14.928,12.751,12.751,0,0,0-2.86-3.59c-.14-.126-.4-.186-.337-.427.076-.3.371-.221.58-.222,1.579-.011,3.158-.006,4.736-.006Z" transform="translate(-942.983 999.795)"/>
      <path id="Path_1720" data-name="Path 1720" class="cls-1" d="M736.361,192.118c-.544.061-.79-.166-.463-.844,1.179-2.441,2.34-4.891,3.524-7.331a1.568,1.568,0,0,1,1.648-.406c.264.2.088.424,0,.611-1.191,2.507-2.4,5-3.582,7.516C737.263,192.14,736.889,192.1,736.361,192.118Z" transform="translate(-988.856 1009.239)"/>
      <path id="Path_1721" data-name="Path 1721" class="cls-1" d="M742.114,192.121c-.5-.012-.768-.136-.515-.657,1.2-2.47,2.4-4.938,3.576-7.419.252-.532.684-.712,1.108-.491.508.266.069.664-.083.982-1.083,2.269-2.166,4.539-3.27,6.8C742.756,191.692,742.653,192.193,742.114,192.121Z" transform="translate(-991.583 1009.228)"/>
      <path id="Path_1722" data-name="Path 1722" class="cls-1" d="M750.22,183.8c-.485,1.087-.917,2.111-1.4,3.112-.718,1.5-1.471,2.989-2.207,4.484a3.535,3.535,0,0,1-.159.358c-.145.225-.332.484-.625.32-.267-.149-.081-.42.007-.609.5-1.064,1.017-2.12,1.528-3.178.7-1.443,1.392-2.887,2.1-4.324.111-.225.248-.493.592-.393A.189.189,0,0,1,750.22,183.8Z" transform="translate(-993.57 1009.189)"/>
    </g>
  </g>
</svg>
